<svg version="1.2" xmlns="http://www.w3.org/2000/svg" viewBox="0 0 560 562" width="560" height="562"><defs><filter x="-50%" y="-50%" width="200%" height="200%" id="f1"> <feGaussianBlur stdDeviation="2"/> </filter><linearGradient id="P" gradientUnits="userSpaceOnUse"/><linearGradient id="g1" x2="1" href="#P" gradientTransform="matrix(0,-541.592,539.164,0,279.961,551.317)"><stop stop-color="#20b038"/><stop offset="1" stop-color="#60d66a"/></linearGradient><linearGradient id="g2" x2="1" href="#P" gradientTransform="matrix(0,-561.014,558.51,0,279.965,561.024)"><stop stop-color="#f9f9f9"/><stop offset="1" stop-color="#fff"/></linearGradient></defs><style>.a{filter:url(#f1)}.b{opacity:.2;filter:url(#f1)}.c{fill:url(#g1)}.d{fill:url(#g2)}.e{fill:#fff}</style><path class="a" d="m2.6 281c0 49.2 12.8 97.2 37.2 139.5l-39.5 144.5 147.6-38.8c40.6 22.3 86.4 34 133 34h0.1c153.4 0 278.2-125.2 278.3-279 0-74.5-28.9-144.6-81.4-197.4-52.6-52.7-122.5-81.7-196.9-81.8-153.4 0-278.3 125.2-278.4 279z"/><path class="b" d="m2.6 281c0 49.2 12.8 97.2 37.2 139.5l-39.5 144.5 147.6-38.8c40.6 22.3 86.4 34 133 34h0.1c153.4 0 278.2-125.2 278.3-279 0-74.5-28.9-144.6-81.4-197.4-52.6-52.7-122.5-81.7-196.9-81.8-153.4 0-278.3 125.2-278.4 279z"/><path class="c" d="m12.6 278.1c0 47.3 12.4 93.4 35.9 134.1l-38.1 139.1 142.3-37.3c39.2 21.4 83.3 32.6 128.3 32.7h0.1c147.9 0 268.4-120.4 268.4-268.4 0.1-71.7-27.8-139.1-78.5-189.9-50.7-50.7-118.1-78.6-189.9-78.7-148 0-268.4 120.4-268.5 268.4z"/><path fill-rule="evenodd" class="d" d="m281.1 0c74.4 0 144.2 29 196.7 81.5 52.5 52.6 81.4 122.4 81.4 196.7 0 153.3-124.8 278-278.1 278h-0.1c-46.5 0-92.3-11.7-132.9-33.8l-147.4 38.6 39.5-144c-24.4-42.2-37.2-90-37.2-139 0.1-153.3 124.8-278 278.1-278zm-213.6 495l87.5-23 8.4 5c35.5 21.1 76.2 32.2 117.6 32.3h0.1c127.4 0 231.1-103.7 231.2-231.1 0-61.7-24-119.8-67.7-163.5-43.6-43.6-101.6-67.7-163.4-67.7-127.5 0-231.2 103.6-231.2 231 0 43.7 12.2 86.2 35.3 123l5.5 8.7z"/><path fill-rule="evenodd" class="e" d="m211.6 161.8c-5.2-11.6-10.7-11.8-15.6-12-4.1-0.2-8.7-0.2-13.3-0.2-4.7 0-12.2 1.8-18.5 8.7-6.4 7-24.4 23.8-24.4 58 0 34.1 24.9 67.2 28.4 71.8 3.5 4.6 48.1 77 118.7 104.9 58.7 23.1 70.6 18.5 83.4 17.4 12.7-1.2 41.1-16.8 46.9-33.1 5.8-16.2 5.8-30.1 4-33-1.7-2.9-6.3-4.6-13.3-8.1-6.9-3.5-41.1-20.3-47.5-22.6-6.3-2.3-11-3.5-15.6 3.5-4.6 6.9-17.9 22.6-22 27.2-4.1 4.7-8.1 5.2-15.1 1.8-6.9-3.5-29.3-10.9-55.8-34.5-20.7-18.4-34.6-41.2-38.7-48.1-4-7-0.4-10.8 3.1-14.2 3.1-3.1 6.9-8.1 10.4-12.2 3.5-4 4.6-6.9 6.9-11.6 2.3-4.6 1.2-8.7-0.6-12.1-1.7-3.5-15.2-37.9-21.4-51.6z"/></svg>